<svg xmlns="http://www.w3.org/2000/svg" xmlns:xlink="http://www.w3.org/1999/xlink" width="199.61" height="32" viewBox="0 0 199.61 32"><defs><style>.a{fill:url(#a);}.b{fill:#fff;}.c{fill:url(#b);}</style><linearGradient id="a" x1="0.5" y1="0.354" x2="0.5" y2="1.354" gradientUnits="objectBoundingBox"><stop offset="0" stop-color="#e52329"/><stop offset="1" stop-color="#e74011"/></linearGradient><linearGradient id="b" x1="0.5" y1="0.446" x2="0.5" y2="1.179" gradientUnits="objectBoundingBox"><stop offset="0" stop-color="#00304d"/><stop offset="0.008" stop-color="#01314e"/><stop offset="0.433" stop-color="#1f5072"/><stop offset="0.779" stop-color="#316488"/><stop offset="1" stop-color="#386b90"/></linearGradient></defs><g transform="translate(-260 170)"><g transform="translate(260 -170)"><path class="a" d="M26.468,27.527l1.059-1.059V1.059L26.468,0H1.059L0,1.059v25.41l1.059,1.059h25.41"/><path class="b" d="M16.131,25.447a4.157,4.157,0,0,0,1.916-.382c-.1-3.246-.176-15.849-.176-15.849h.236l5.328-1.672-.007-.41L18.062,5.229H10.024l-.311.433V8.868l.313.389H14.4c-.01.018-.115,12.591-.188,15.807A4.578,4.578,0,0,0,16.131,25.447Z" transform="translate(-2.651 -1.427)"/><path class="c" d="M59.345,23.486h2.5l1.359-5.21c.429-1.4,1.573-7.047,1.573-7.047l.287.074s-.322,5.578-.322,8.073v4.845H71.9V0h-8.94L61.133,7.266c-.215.808-.429,2.5-.429,2.5h-.215s-.215-1.688-.429-2.5L58.236,0H49.3V24.22h7.152V19.376c0-2.5-.322-8.073-.322-8.073l.286-.074s1.144,5.651,1.574,7.047l1.36,5.21M91.666,5.137H84.549l-1.467,6.239-.357,3.669h-.465l-.394-3.669L80.151,5.137H73.07L78.684,24.22h1.36l-.143.661a1.483,1.483,0,0,1-1.645,1.1,12.788,12.788,0,0,1-1.645-.147l-.68.661s-.286,2.128-.607,4.623A9.579,9.579,0,0,0,79.507,32c3.826,0,5.685-1.909,6.723-5.945L91.666,5.137M102.472,24.22h7.152V0h-7.152V9.138h-2.5V0H92.817V24.22H99.97V15.156h2.5V24.22M113.183,5.174a54.984,54.984,0,0,0-.786,5.615l.643.44a18.225,18.225,0,0,1,4.291-.513c2.54,0,3,.477,3,1.394v.111l-3.719.4c-3.147.331-5.579,2.2-5.579,5.725v.735a5.2,5.2,0,0,0,5.4,5.578,5.31,5.31,0,0,0,4.255-1.8h.287a4.442,4.442,0,0,0,3.719,1.8,5.231,5.231,0,0,0,3.826-1.541s.644-2.68.823-3.817l-.287-.7-.786-.147a.913.913,0,0,1-.787-1.064V12.037c0-4.954-2.575-7.34-9.262-7.34a24.821,24.821,0,0,0-5.042.477m5.865,13.982c-.536,0-.858-.4-.858-1.027v-.515a1.336,1.336,0,0,1,.823-1.395l1.323-.44v2.9a2.737,2.737,0,0,1-1.287.477m18.442-8.221a2.936,2.936,0,0,1,1.037-.22c.787,0,.93.477.93.844V24.22h7.152V10.935a2.936,2.936,0,0,1,1.037-.22c.786,0,.929.477.929.844V24.22h7.152V10.092c0-3.119-1.9-5.4-5.042-5.4a5.885,5.885,0,0,0-4.792,2.349A4.925,4.925,0,0,0,141.567,4.7,5.969,5.969,0,0,0,136.561,7.3l-2.039-2.166h-4.184V24.22h7.152V10.935m27.36,0a2.936,2.936,0,0,1,1.037-.22c.786,0,.929.477.929.844V24.22h7.152V10.935a2.936,2.936,0,0,1,1.037-.22c.787,0,.929.477.929.844V24.22h7.153V10.092c0-3.119-1.9-5.4-5.042-5.4a5.886,5.886,0,0,0-4.792,2.349A4.923,4.923,0,0,0,168.928,4.7,5.971,5.971,0,0,0,163.921,7.3l-2.038-2.166H157.7V24.22h7.152V10.935m35.031,5.578a28.009,28.009,0,0,0,.322-3.376v-.624c0-5.321-2.36-7.816-6.83-7.816h-.823c-4.47,0-8.01,3.156-8.01,9.211v1.321c0,6.5,3.29,9.432,8.761,9.432a12.953,12.953,0,0,0,6.259-1.358q-.037-2.573-.251-5.137l-.5-.294a17.4,17.4,0,0,1-4.506.77c-2.289,0-2.611-.77-2.611-1.761v-.367h8.189m-8.189-5.247c0-1.138.609-1.652,1.216-1.652.644,0,.929.367.929,1.211v2.092h-2.145V11.266M208.917,24.22V11.927a2.853,2.853,0,0,1,1.43-.294,5.326,5.326,0,0,1,1.466.22l.787-.4.465-6.679a7.2,7.2,0,0,0-1-.074,4.482,4.482,0,0,0-4.148,2.5h-.072l-1.9-2.054h-4.184V24.22h7.152" transform="translate(-13.454)"/></g></g></svg>